<svg width="1152" height="700" viewBox="0 0 1152 700" fill="none" xmlns="http://www.w3.org/2000/svg">
<g clip-path="url(#clip0)">
<rect width="1152" height="700" fill="white"/>
<path d="M541.471 622C369.321 590 155.803 642.667 -1 698V0H1152V602C855.743 698 713.733 654.021 541.471 622Z" fill="url(#paint0_linear)"/>
<rect x="1035" y="251" width="116.8" height="8" fill="url(#paint1_linear)" fill-opacity="0.76"/>
<circle cx="1025.5" cy="255.5" r="10.5" fill="#6797EE"/>
<rect x="1058" y="281" width="94" height="8" fill="url(#paint2_linear)" fill-opacity="0.76"/>
<circle cx="1048.5" cy="285.5" r="10.5" fill="#6797EE"/>
<rect x="1080" y="311" width="72" height="8" fill="url(#paint3_linear)" fill-opacity="0.76"/>
<circle cx="1071.5" cy="315.5" r="10.5" fill="#6797EE"/>
<rect x="1104" y="341" width="48" height="8" fill="url(#paint4_linear)" fill-opacity="0.76"/>
<circle cx="1094.5" cy="345.5" r="10.5" fill="#6797EE"/>
<path d="M-7 540C4.33333 563.167 30.6 607.5 45 599.5" stroke="#6DF0F0" stroke-width="3"/>
<path d="M-12 551C-0.666667 574.167 25.6 618.5 40 610.5" stroke="#6DF0F0" stroke-width="3"/>
<path d="M-17 562C-5.66667 585.167 20.6 629.5 35 621.5" stroke="#6DF0F0" stroke-width="3"/>
<path d="M-22 573C-10.6667 596.167 15.6 640.5 30 632.5" stroke="#6DF0F0" stroke-width="3"/>
<rect x="-130" y="515.382" width="114.862" height="221.181" rx="20" transform="rotate(-37.1603 -130 515.382)" fill="#0D2767" fill-opacity="0.2"/>
</g>
<defs>
<linearGradient id="paint0_linear" x1="197.172" y1="242" x2="861.398" y2="680.53" gradientUnits="userSpaceOnUse">
<stop stop-color="#2378F7"/>
<stop offset="1" stop-color="#063DCD"/>
</linearGradient>
<linearGradient id="paint1_linear" x1="1093.4" y1="251" x2="1069.5" y2="259" gradientUnits="userSpaceOnUse">
<stop stop-color="#2378F7"/>
<stop offset="1" stop-color="#8FBAFA" stop-opacity="0.93"/>
</linearGradient>
<linearGradient id="paint2_linear" x1="1105" y1="281" x2="1085.06" y2="286.372" gradientUnits="userSpaceOnUse">
<stop stop-color="#2378F7"/>
<stop offset="1" stop-color="#8FBAFA" stop-opacity="0.93"/>
</linearGradient>
<linearGradient id="paint3_linear" x1="1116" y1="311" x2="1100.29" y2="314.243" gradientUnits="userSpaceOnUse">
<stop stop-color="#2378F7"/>
<stop offset="1" stop-color="#8FBAFA" stop-opacity="0.93"/>
</linearGradient>
<linearGradient id="paint4_linear" x1="1128" y1="341" x2="1117.28" y2="342.475" gradientUnits="userSpaceOnUse">
<stop stop-color="#2378F7"/>
<stop offset="1" stop-color="#8FBAFA" stop-opacity="0.93"/>
</linearGradient>
<clipPath id="clip0">
<rect width="1152" height="700" fill="white"/>
</clipPath>
</defs>
</svg>
