<?xml version="1.0" encoding="iso-8859-1"?>
<!--Generator: Adobe Illustrator 19.0.0, SVG Export Plug-In . SVG Version: 6.00 Build 0)-->
<svg xmlns="http://www.w3.org/2000/svg" xmlns:xlink="http://www.w3.org/1999/xlink" id="Capa_1" width="512px" height="512px" x="0px" y="0px" style="enable-background:new 0 0 480.016 480.016" version="1.1" viewBox="0 0 480.016 480.016" xml:space="preserve">
    <g>
        <g>
            <path fill="#2378F7" d="M300.854,141.616h-5.008c-1.299-4.425-3.069-8.697-5.28-12.744l3.544-3.536c3.123-3.124,3.123-8.188,0-11.312    L279.454,99.36c-3.122-3.126-8.188-3.129-11.314-0.006c-0.002,0.002-0.004,0.004-0.006,0.006l-3.536,3.544    c-4.047-2.215-8.323-3.986-12.752-5.28v-5.008c0-4.418-3.582-8-8-8h-20.72c-4.418,0-8,3.582-8,8v5.008    c-4.429,1.294-8.705,3.065-12.752,5.28l-3.536-3.544c-3.178-2.998-8.142-2.998-11.32,0l-14.656,14.664    c-3.123,3.124-3.123,8.188,0,11.312l3.544,3.536c-2.211,4.047-3.981,8.319-5.28,12.744h-5.048c-4.418,0-8,3.582-8,8v20.8    c0,4.418,3.582,8,8,8h5.008c1.299,4.425,3.069,8.697,5.28,12.744l-3.544,3.536c-3.123,3.124-3.123,8.188,0,11.312l14.656,14.664    c3.122,3.126,8.188,3.129,11.314,0.006c0.002-0.002,0.004-0.004,0.006-0.006l3.536-3.544c4.047,2.215,8.323,3.986,12.752,5.28    v5.008c0,4.418,3.582,8,8,8h20.76c4.418,0,8-3.582,8-8v-5c4.429-1.294,8.704-3.065,12.752-5.28l3.536,3.544    c3.178,2.998,8.142,2.998,11.32,0l14.656-14.664c3.123-3.124,3.123-8.188,0-11.312l-3.544-3.536    c2.211-4.049,3.981-8.325,5.28-12.752h5.008c4.418,0,8-3.582,8-8v-20.8C308.854,145.198,305.272,141.616,300.854,141.616z     M292.814,162.416h-3.32c-3.861-0.002-7.173,2.754-7.872,6.552c-1.231,6.767-3.893,13.193-7.808,18.848    c-2.186,3.179-1.793,7.465,0.936,10.192l2.352,2.344l-3.344,3.344l-2.344-2.344c-2.73-2.731-7.022-3.121-10.2-0.928    c-5.657,3.91-12.083,6.569-18.848,7.8c-3.801,0.695-6.561,4.008-6.56,7.872v3.32h-4.72v-3.32c0.001-3.864-2.759-7.176-6.56-7.872    c-6.766-1.231-13.191-3.89-18.848-7.8c-3.178-2.193-7.47-1.802-10.2,0.928l-2.344,2.344l-3.344-3.344l2.352-2.344    c2.729-2.727,3.122-7.013,0.936-10.192c-3.915-5.655-6.577-12.081-7.808-18.848c-0.699-3.798-4.011-6.554-7.872-6.552h-3.32v-4.8    h3.32c3.861,0.002,7.173-2.754,7.872-6.552c1.231-6.767,3.893-13.193,7.808-18.848c2.186-3.179,1.793-7.465-0.936-10.192    l-2.352-2.344l3.344-3.344l2.344,2.344c2.73,2.73,7.022,3.121,10.2,0.928c5.657-3.91,12.083-6.569,18.848-7.8    c3.801-0.695,6.561-4.008,6.56-7.872v-3.32h4.72v3.32c-0.001,3.864,2.759,7.177,6.56,7.872c6.766,1.231,13.191,3.89,18.848,7.8    c3.178,2.193,7.47,1.802,10.2-0.928l2.344-2.344l3.344,3.344l-2.352,2.344c-2.729,2.727-3.122,7.013-0.936,10.192    c3.915,5.655,6.577,12.081,7.808,18.848c0.699,3.798,4.011,6.554,7.872,6.552h3.32V162.416z"/>
        </g>
    </g>
    <g>
        <g>
            <path fill="#2378F7" d="M233.446,120.92c-21.592,0-39.096,17.504-39.096,39.096c0.026,21.581,17.515,39.07,39.096,39.096    c21.592,0,39.096-17.504,39.096-39.096C272.542,138.424,255.038,120.92,233.446,120.92z M233.446,183.112    c-12.756,0-23.096-10.34-23.096-23.096c0.013-12.75,10.346-23.083,23.096-23.096c12.756,0,23.096,10.34,23.096,23.096    C256.542,172.772,246.201,183.112,233.446,183.112z"/>
        </g>
    </g>
    <g>
        <g>
            <path fill="#2378F7" d="M345.054,125.488c-17.488-52.4-57.112-81.264-111.608-81.264c-56.998,0.085-105.489,41.567-114.4,97.864l-7.944-7.936    c-3.178-3.069-8.243-2.981-11.312,0.197c-2.994,3.1-2.994,8.015,0,11.115l20.208,20.208c0.04,0,0.096,0.048,0.136,0.088    c0.664,0.638,1.436,1.152,2.28,1.52c0.176,0.08,0.352,0.136,0.536,0.2c0.861,0.333,1.773,0.514,2.696,0.536    c0.934-0.018,1.858-0.203,2.728-0.544c0.112,0,0.224,0,0.328-0.064c0.234-0.124,0.461-0.26,0.68-0.408    c0.224-0.12,0.472-0.184,0.696-0.328l20.208-13.48c3.799-2.256,5.049-7.165,2.793-10.964c-2.256-3.799-7.165-5.049-10.964-2.793    c-0.23,0.137-0.454,0.285-0.669,0.444l-6.4,4.264c7.812-48.302,49.47-83.83,98.4-83.92c47.736,0,81.072,24.312,96.408,70.32    c1.396,4.197,5.931,6.468,10.128,5.072S346.45,129.685,345.054,125.488z"/>
        </g>
    </g>
    <g>
        <g>
            <path fill="#2378F7" d="M367.298,174.764c-0.064-0.067-0.13-0.132-0.196-0.196l-20.208-20.208c-0.216-0.216-0.496-0.312-0.728-0.504    c-0.347-0.279-0.713-0.533-1.096-0.76c-0.486-0.261-0.998-0.47-1.528-0.624c-0.401-0.136-0.813-0.238-1.232-0.304    c-0.176,0-0.336-0.12-0.512-0.128c-0.534-0.021-1.068-0.005-1.6,0.048c-0.096,0-0.184,0.056-0.28,0.072    c-0.216,0-0.408,0.12-0.624,0.176c-0.728,0.184-1.426,0.472-2.072,0.856c-0.144,0.08-0.304,0.088-0.44,0.176l-20.208,13.48    c-3.756,2.326-4.916,7.257-2.59,11.013c2.326,3.756,7.257,4.916,11.013,2.59c0.153-0.095,0.303-0.195,0.449-0.299l6.4-4.264    c-7.812,48.302-49.47,83.83-98.4,83.92c-53.488,0-82.296-20.936-96.312-69.984c-1.052-4.291-5.383-6.918-9.674-5.866    c-4.291,1.052-6.918,5.383-5.866,9.674c0.048,0.194,0.102,0.386,0.164,0.576c15.896,55.664,51.392,81.6,111.688,81.6    c56.998-0.085,105.489-41.567,114.4-97.864l7.944,7.936c3.07,3.178,8.134,3.266,11.312,0.196    C370.28,183.007,370.368,177.942,367.298,174.764z"/>
        </g>
    </g>
    <g>
        <g>
            <path fill="#2378F7" d="M415.582,221.544l-6.136-59.288c-0.24-89.496-79.104-162.24-176-162.24c-49.14-0.662-96.33,19.198-130.208,54.8    c-27.951,29.967-41.904,70.371-38.4,111.2c0,0.12,0,0.224,0,0.344l16.144,127.36c5.626,44.491,8.453,89.291,8.464,134.136v44.16    c0,4.418,3.582,8,8,8h168c4.418,0,8-3.582,8-8v-104h73.032c12.62-0.033,23.071-9.81,23.944-22.4l6.512-97.6h14.768    c13.255,0.004,24.003-10.738,24.008-23.992C415.71,223.195,415.667,222.368,415.582,221.544z M392.502,231.92    c-0.279,0.028-0.56,0.041-0.84,0.04h-22.216c-4.22-0.009-7.721,3.261-8,7.472l-7,105.056c-0.279,4.211-3.78,7.481-8,7.472h-81    c-4.418,0-8,3.582-8,8v104.056h-152v-36.16c-0.009-45.519-2.879-90.993-8.592-136.152L80.734,164.52    c-3.046-36.335,9.418-72.262,34.312-98.904c30.844-32.291,73.75-50.265,118.4-49.6c88.224,0,160,65.8,160,146.664    c0,0.272,0,0.544,0.04,0.8l6.176,59.68C400.104,227.556,396.898,231.478,392.502,231.92z"/>
        </g>
    </g>
    <g/>
    <g/>
    <g/>
    <g/>
    <g/>
    <g/>
    <g/>
    <g/>
    <g/>
    <g/>
    <g/>
    <g/>
    <g/>
    <g/>
    <g/>
</svg>
